<svg width="28" height="28" viewBox="0 0 28 28" fill="none" xmlns="http://www.w3.org/2000/svg">
<g clip-path="url(#clip0_129_152)">
<path d="M13.9994 19.8333C10.7829 19.8333 8.16602 17.2164 8.16602 13.9999C8.16602 10.7834 10.7829 8.1665 13.9994 8.1665C17.2159 8.1665 19.8328 10.7834 19.8328 13.9999C19.8328 17.2164 17.2159 19.8333 13.9994 19.8333ZM13.9994 9.9165C11.7478 9.9165 9.91602 11.7483 9.91602 13.9999C9.91602 16.2515 11.7478 18.0833 13.9994 18.0833C16.251 18.0833 18.0828 16.2515 18.0828 13.9999C18.0828 11.7483 16.251 9.9165 13.9994 9.9165Z" fill="black"/>
<path d="M14.0006 25.6667C7.56754 25.6667 2.33398 20.4331 2.33398 14.0001C2.33398 7.56705 7.56754 2.3335 14.0006 2.3335C20.4336 2.3335 25.6672 7.56705 25.6672 14.0001C25.6672 20.4331 20.4336 25.6667 14.0006 25.6667ZM14.0006 4.0835C8.53247 4.0835 4.08398 8.53198 4.08398 14.0001C4.08398 19.4682 8.53247 23.9167 14.0006 23.9167C19.4687 23.9167 23.9172 19.4682 23.9172 14.0001C23.9172 8.53198 19.4687 4.0835 14.0006 4.0835Z" fill="black"/>
<path d="M14 5.83341C13.517 5.83341 13.125 5.44141 13.125 4.95841V0.875C13.125 0.391998 13.517 0 14 0C14.483 0 14.875 0.391998 14.875 0.875V4.95841C14.875 5.44141 14.483 5.83341 14 5.83341Z" fill="black"/>
<path d="M14 27.9999C13.517 27.9999 13.125 27.6079 13.125 27.1249V23.0415C13.125 22.5585 13.517 22.1665 14 22.1665C14.483 22.1665 14.875 22.5585 14.875 23.0415V27.1249C14.875 27.6079 14.483 27.9999 14 27.9999Z" fill="black"/>
<path d="M4.95841 14.875H0.875C0.391998 14.875 0 14.483 0 14C0 13.517 0.391998 13.125 0.875 13.125H4.95841C5.44141 13.125 5.83341 13.517 5.83341 14C5.83341 14.483 5.44141 14.875 4.95841 14.875Z" fill="black"/>
<path d="M27.1244 14.875H23.041C22.558 14.875 22.166 14.483 22.166 14C22.166 13.517 22.558 13.125 23.041 13.125H27.1244C27.6074 13.125 27.9994 13.517 27.9994 14C27.9994 14.483 27.6074 14.875 27.1244 14.875Z" fill="black"/>
</g>
<defs>
<clipPath id="clip0_129_152">
<rect width="28" height="28" fill="white"/>
</clipPath>
</defs>
</svg>
