<svg width="28" height="28" viewBox="0 0 28 28" fill="none" xmlns="http://www.w3.org/2000/svg">
<g clip-path="url(#clip0_129_159)">
<path d="M27.7597 18.6881L23.9465 14.875L24.026 14.7955C24.9507 13.8709 24.951 12.3664 24.0273 11.4412C24.0262 11.4401 24.0251 11.4391 24.024 11.438C23.7955 11.2096 23.5284 11.0336 23.2377 10.9161C23.4896 10.2791 23.5443 9.20092 22.7079 8.36459C22.7058 8.36245 22.7036 8.36032 22.7013 8.35797C22.4738 8.13195 22.2085 7.95764 21.9196 7.84079C22.1711 7.20483 22.226 6.12582 21.3905 5.28991C21.3899 5.28949 21.3894 5.28885 21.389 5.28842C21.1602 5.05963 20.893 4.88339 20.6018 4.76547C20.7101 4.49096 20.7669 4.19595 20.7669 3.89196C20.7669 3.25814 20.52 2.66235 20.072 2.21417C20.0718 2.21396 20.0718 2.21374 20.0716 2.21374C20.0714 2.21353 20.0712 2.21331 20.071 2.2131C19.1458 1.2879 17.6404 1.2879 16.7151 2.2131L16.6359 2.29257L15.4586 1.11529C15.2091 0.865566 14.8274 0.803829 14.5118 0.961483L11.5094 2.46283C10.5901 1.7395 9.23984 1.78393 8.37146 2.64932C8.36996 2.6506 8.36868 2.6521 8.36719 2.65338C8.16852 2.85205 7.53854 3.55786 7.69641 4.66955C7.29843 4.77145 6.92181 4.97738 6.61099 5.2882C6.61078 5.28863 6.61035 5.28885 6.61014 5.28906C6.61014 5.28927 6.61014 5.28927 6.60992 5.28927C5.77466 6.12454 5.827 7.19885 6.08099 7.84079C5.79175 7.95764 5.526 8.13195 5.29828 8.35818C5.29614 8.36032 5.29401 8.36245 5.29187 8.36459C4.45682 9.19986 4.50916 10.2742 4.76294 10.9161C4.4722 11.0336 4.20496 11.2092 3.97638 11.4376C3.97488 11.4388 3.9736 11.4401 3.97232 11.4416C3.04733 12.3685 3.04648 13.8679 3.97403 14.7955L4.0535 14.875L0.240326 18.6881C-0.0801086 19.0086 -0.0801086 19.5279 0.240326 19.8483C0.560547 20.1688 1.08008 20.1685 1.4003 19.8483L5.41556 15.8331C6.02267 16.0129 7.00021 16.0057 7.77011 15.2358C7.77139 15.2345 7.77289 15.233 7.77417 15.2315C8.18005 14.8243 8.41931 14.2956 8.45926 13.7276C9.02878 13.6874 9.55899 13.4469 9.96658 13.0393C9.9668 13.0391 9.96701 13.0389 9.96722 13.0387C9.96744 13.0384 9.96744 13.0384 9.96765 13.0382C10.3757 12.6302 10.616 12.0996 10.6559 11.5296C11.205 11.4905 11.7429 11.2624 12.1618 10.8439C12.1633 10.8426 12.1646 10.8413 12.1658 10.8401C12.5841 10.4209 12.812 9.88324 12.8513 9.33444C13.4207 9.29449 13.9507 9.05459 14.3587 8.64721C14.36 8.64593 14.3612 8.64465 14.3623 8.64337C15.1303 7.87411 15.1384 6.89956 14.9581 6.29052L17.8755 3.37307C18.1609 3.08767 18.6256 3.08767 18.911 3.37307C18.9114 3.3735 18.9116 3.37371 18.912 3.37414C19.1981 3.66018 19.1983 4.12332 18.912 4.40957L16.9546 6.367C16.6342 6.68744 16.6342 7.20675 16.9546 7.52719C17.2748 7.84741 17.7942 7.84762 18.1146 7.52719L19.1966 6.4454C19.4826 6.16256 19.9432 6.16299 20.2286 6.44796C20.2292 6.44861 20.2299 6.44925 20.2305 6.44989C20.5159 6.73571 20.5161 7.19864 20.2299 7.48489L18.6918 9.02298C18.3716 9.34341 18.3716 9.86273 18.6918 10.1832C19.0122 10.5036 19.5316 10.5034 19.852 10.1832L20.5114 9.52371C20.7975 9.23767 21.2606 9.23724 21.5469 9.52371C21.5484 9.5252 21.5499 9.52649 21.5514 9.52798C21.8338 9.81402 21.8333 10.2748 21.5479 10.5602L20.0099 12.0983C19.6896 12.4185 19.6894 12.938 20.0099 13.2585C20.3301 13.5787 20.8496 13.5787 21.17 13.2585L21.8318 12.5965C22.1181 12.313 22.5793 12.3134 22.8649 12.599C22.8651 12.599 22.8654 12.5992 22.8654 12.5995C22.8656 12.5995 22.8658 12.5997 22.866 12.5999C23.1514 12.8855 23.1514 13.3499 22.866 13.6355L17.2983 19.203C16.6521 19.8492 15.7929 20.2051 14.8788 20.2053C14.8786 20.2053 14.8786 20.2053 14.8782 20.2053H13.1214C12.9037 20.2053 12.695 20.2916 12.5414 20.4456L7.26938 25.7174C6.94916 26.0376 6.94916 26.5572 7.26938 26.8774C7.58981 27.198 8.10934 27.1978 8.42957 26.8774L13.4612 21.8459H14.5388L19.5704 26.8774C19.8909 27.1978 20.4104 27.1978 20.7306 26.8774C21.0508 26.5572 21.0508 26.0378 20.7306 25.7174L16.5703 21.5573C17.2725 21.3091 17.9164 20.9053 18.4585 20.3632L22.7865 16.0352L26.5997 19.8483C26.9199 20.1688 27.4395 20.1685 27.7597 19.8483C28.0801 19.5279 28.0801 19.0086 27.7597 18.6881ZM14.7167 2.69354L15.4759 3.45254L14 4.92846L12.7488 3.67727L14.7167 2.69354ZM6.61099 14.0747C6.60992 14.0758 6.60886 14.0769 6.60779 14.0779C6.32388 14.3595 5.86224 14.3638 5.57428 14.0758L5.13422 13.6355C4.84818 13.3495 4.84775 12.8863 5.134 12.5999C5.13422 12.5997 5.13443 12.5995 5.13464 12.5995C5.13464 12.5992 5.13486 12.599 5.13507 12.599C5.42111 12.313 5.88425 12.3126 6.1705 12.5988L6.61099 13.0391C6.89703 13.3251 6.89725 13.7885 6.61099 14.0747ZM8.80746 11.8783C8.80725 11.8785 8.80682 11.8789 8.80661 11.8791C8.52057 12.1652 8.05743 12.1656 7.77097 11.8791L6.45206 10.5602C6.16666 10.2748 6.16623 9.81402 6.44864 9.52798C6.45013 9.5267 6.45163 9.5252 6.45312 9.52371C6.73895 9.23767 7.20209 9.23745 7.48856 9.52371L8.80746 10.8426C9.09351 11.1287 9.09393 11.5918 8.80746 11.8783ZM11.0042 9.68158C11.0039 9.68179 11.0039 9.68179 11.0037 9.682C11.0035 9.68222 11.0033 9.68243 11.0031 9.68243C10.7177 9.96805 10.2531 9.96805 9.96765 9.68243L7.7699 7.48489C7.48386 7.19885 7.48364 6.73571 7.7699 6.44946C7.77032 6.44903 7.77054 6.44882 7.77097 6.44839C8.05615 6.1632 8.52014 6.16299 8.80576 6.44775L11.0042 8.64593V8.64615C11.2898 8.93176 11.2896 9.39618 11.0042 9.68158ZM13.2008 7.48489C13.2006 7.4851 13.2004 7.48532 13.2002 7.48553C13.2 7.48553 13.2 7.48574 13.1998 7.48596C12.9137 7.772 12.4506 7.77221 12.1641 7.48596L9.52737 4.849C9.24112 4.56295 9.24176 4.10132 9.52524 3.81549C9.52631 3.81442 9.52737 3.81356 9.52844 3.8125C9.81427 3.52646 10.2774 3.52603 10.5639 3.8125L13.2006 6.44925C13.4869 6.73529 13.4871 7.19864 13.2008 7.48489Z" fill="black"/>
</g>
<defs>
<clipPath id="clip0_129_159">
<rect width="28" height="28" fill="white"/>
</clipPath>
</defs>
</svg>
