<svg width="28" height="28" viewBox="0 0 28 28" fill="none" xmlns="http://www.w3.org/2000/svg">
<g clip-path="url(#clip0_129_161)">
<path d="M4.99054 6.76126C5.14547 7.187 5.61622 7.40647 6.04196 7.25154C6.4677 7.09661 6.68717 6.62586 6.53224 6.20017L6.1515 5.15411L10.4959 7.17989C11.8825 7.82646 12.8355 9.08461 13.0986 10.5611C11.5737 10.9612 10.4455 12.3513 10.4455 14C10.4455 15.96 12.0401 17.5547 14.0002 17.5547C15.9603 17.5547 17.5549 15.96 17.5549 14C17.5549 12.3513 16.4267 10.9612 14.9018 10.5611C15.165 9.08461 16.1179 7.82646 17.5045 7.17989L21.8489 5.15411L21.4682 6.20017C21.3132 6.62591 21.5327 7.09661 21.9584 7.25154C22.3842 7.40647 22.8549 7.187 23.0099 6.76126L24.0679 3.85424C24.2228 3.4285 24.0034 2.9578 23.5776 2.80287L20.6706 1.74478C20.2449 1.58985 19.7742 1.80931 19.6192 2.23505C19.4643 2.66079 19.6838 3.13149 20.1095 3.28647L21.1556 3.66721L16.8111 5.693C16.0531 6.0465 15.3778 6.54557 14.8206 7.1595V2.80068L15.6077 3.58786C15.9281 3.90821 16.4475 3.90821 16.7678 3.58786C17.0882 3.2675 17.0882 2.74813 16.7678 2.42777L14.5803 0.24027C14.26 -0.0800898 13.7406 -0.0800898 13.4202 0.24027L11.2327 2.42777C10.9124 2.74813 10.9124 3.2675 11.2327 3.58786C11.5531 3.90821 12.0725 3.90821 12.3928 3.58786L13.1799 2.80068V7.1595C12.6226 6.54557 11.9474 6.0465 11.1893 5.693L6.84488 3.66715L7.89095 3.28642C8.31669 3.13149 8.53615 2.66074 8.38122 2.235C8.22629 1.80925 7.75554 1.58979 7.32985 1.74472L4.42277 2.80287C3.99703 2.9578 3.77757 3.42855 3.9325 3.85424L4.99054 6.76126ZM15.9143 14C15.9143 15.0554 15.0556 15.914 14.0002 15.914C12.9448 15.914 12.0861 15.0554 12.0861 14C12.0861 12.9446 12.9448 12.0859 14.0002 12.0859C15.0556 12.0859 15.9143 12.9446 15.9143 14Z" fill="#060606"/>
<path d="M27.1797 12.6328H21.6562C21.2032 12.6328 20.8359 13.0001 20.8359 13.4531V14C20.8359 17.7693 17.7693 20.8359 14 20.8359C10.2307 20.8359 7.16406 17.7693 7.16406 14V13.4531C7.16406 13.0001 6.79678 12.6328 6.34375 12.6328H0.820312C0.367281 12.6328 0 13.0001 0 13.4531V16.7458C0 17.1724 0.327031 17.5278 0.752172 17.5632L1.95803 17.6637C2.48161 17.7074 2.91419 18.0232 3.11527 18.5085C3.31636 18.994 3.23378 19.5232 2.89439 19.9243L2.1128 20.848C1.83723 21.1737 1.8573 21.6562 2.15895 21.958L6.04204 25.8411C6.34364 26.1429 6.8262 26.1629 7.15198 25.8873L8.0757 25.1057C8.47678 24.7662 9.00605 24.6836 9.4914 24.8848C9.97675 25.0858 10.2926 25.5184 10.3363 26.042L10.4367 27.2478C10.4722 27.673 10.8276 28.0001 11.2542 28.0001H16.7458C17.1724 28.0001 17.5278 27.673 17.5632 27.2478L17.6637 26.042C17.7073 25.5184 18.0231 25.0858 18.5085 24.8848C18.9939 24.6836 19.5232 24.7662 19.9242 25.1056L20.848 25.8873C21.1737 26.1629 21.6562 26.1428 21.9579 25.8411L25.841 21.958C26.1427 21.6562 26.1627 21.1737 25.8871 20.848L25.1056 19.9243C24.7662 19.5232 24.6836 18.994 24.8847 18.5085C25.0857 18.0232 25.5183 17.7074 26.0419 17.6637L27.2478 17.5632C27.6729 17.5278 27.9999 17.1724 27.9999 16.7458V13.4531C28 13.0001 27.6327 12.6328 27.1797 12.6328ZM26.3594 15.991L25.9057 16.0287C24.7752 16.123 23.8032 16.8325 23.369 17.8807C22.9348 18.9288 23.1203 20.1179 23.8532 20.984L24.1473 21.3315L21.3316 24.1472L20.9841 23.853C20.1181 23.1203 18.929 22.9347 17.8808 23.3688C16.8326 23.803 16.123 24.775 16.0288 25.9056L15.991 26.3594H12.009L11.9713 25.9057C11.877 24.7751 11.1674 23.8031 10.1193 23.369C9.07107 22.9347 7.882 23.1203 7.01597 23.8532L6.66848 24.1472L3.85284 21.3316L4.1469 20.9841C4.87971 20.118 5.06521 18.9289 4.6311 17.8807C4.19699 16.8326 3.22492 16.123 2.09442 16.0288L1.64062 15.991V14.2734H5.52781C5.67279 18.8212 9.41757 22.4766 14 22.4766C18.5824 22.4766 22.3273 18.8212 22.4722 14.2734H26.3594V15.991Z" fill="#060606"/>
</g>
<defs>
<clipPath id="clip0_129_161">
<rect width="28" height="28" fill="white"/>
</clipPath>
</defs>
</svg>
