<svg width="28" height="28" viewBox="0 0 28 28" fill="none" xmlns="http://www.w3.org/2000/svg">
<g clip-path="url(#clip0_129_165)">
<path d="M27.9672 2.09038C27.9066 0.978147 27.022 0.0936857 25.9097 0.0329825C23.6655 -0.0896268 19.2739 0.0296467 15.0745 2.20167C12.9338 3.30898 10.6697 5.18635 8.86289 7.35241C8.84063 7.3791 8.81897 7.40595 8.79688 7.43269L4.69641 7.74944C4.02146 7.80162 3.42028 8.15539 3.04698 8.71998L0.249498 12.9513C-0.0336192 13.3795 -0.078627 13.9153 0.129021 14.3847C0.336725 14.8542 0.763506 15.1813 1.27073 15.2599L4.7254 15.795C4.7132 15.8621 4.70095 15.9292 4.68974 15.9964C4.57473 16.6843 4.80267 17.3917 5.29956 17.8885L10.1116 22.7006C10.5236 23.1126 11.0802 23.3397 11.6506 23.3397C11.7681 23.3397 11.8862 23.33 12.0038 23.3104C12.071 23.2992 12.1381 23.2869 12.2052 23.2747L12.7403 26.7295C12.8189 27.2367 13.146 27.6635 13.6153 27.8712C13.8106 27.9576 14.0173 28.0002 14.223 28.0002C14.5119 28.0002 14.7988 27.9161 15.0489 27.7507L19.2801 24.9532C19.8448 24.5798 20.1985 23.9787 20.2506 23.3038L20.5673 19.2034C20.5941 19.1813 20.621 19.1596 20.6477 19.1373C22.8138 17.3305 24.6912 15.0665 25.7985 12.9257C27.9706 8.72616 28.0896 4.33448 27.9672 2.09038ZM18.3753 23.5846L14.3279 26.2606L13.8064 22.8938C15.517 22.3908 17.2092 21.5853 18.8213 20.5061L18.615 23.1773C18.6021 23.344 18.5147 23.4924 18.3753 23.5846ZM11.2717 21.5405L6.45959 16.7284C6.33682 16.6056 6.28005 16.4331 6.30789 16.2669C6.45095 15.4114 6.67326 14.597 6.94844 13.8299L14.1687 21.0502C13.2473 21.3802 12.4221 21.5771 11.7333 21.6922C11.5668 21.7199 11.3945 21.6633 11.2717 21.5405ZM4.8228 9.3852L7.49395 9.17887C6.41475 10.791 5.6092 12.4832 5.10624 14.1938L1.73946 13.6724L4.41554 9.62484C4.50774 9.48539 4.65622 9.39805 4.8228 9.3852ZM19.5969 17.8774C18.2717 18.9828 16.9852 19.7823 15.7995 20.3609L7.63898 12.2003C8.39684 10.6525 9.32177 9.36354 10.1227 8.40334C11.7948 6.39877 13.8744 4.6695 15.8283 3.65887C19.6824 1.66535 23.743 1.558 25.8204 1.67109C26.0954 1.68608 26.3141 1.90477 26.3291 2.1798C26.4424 4.25726 26.3348 8.31781 24.3413 12.1719C23.3307 14.1258 21.6014 16.2053 19.5969 17.8774Z" fill="#060606"/>
<path d="M19.1796 12.9196C20.2297 12.9195 21.2802 12.5197 22.0797 11.7202C22.8544 10.9456 23.281 9.91559 23.281 8.82009C23.281 7.72459 22.8544 6.69461 22.0797 5.91996C20.4805 4.32073 17.8785 4.32084 16.2794 5.91996C15.5047 6.69461 15.0781 7.72459 15.0781 8.82009C15.0781 9.91559 15.5048 10.9456 16.2794 11.7202C17.0791 12.5199 18.1291 12.9197 19.1796 12.9196ZM17.4394 7.07999C17.9191 6.60022 18.5493 6.36036 19.1795 6.36036C19.8097 6.36036 20.4399 6.60022 20.9196 7.07999C21.3844 7.54478 21.6403 8.16275 21.6403 8.82004C21.6403 9.47733 21.3844 10.0954 20.9196 10.5601C19.9601 11.5196 18.3989 11.5196 17.4394 10.5601C16.9746 10.0954 16.7186 9.47738 16.7186 8.82009C16.7186 8.1628 16.9746 7.54478 17.4394 7.07999Z" fill="#060606"/>
<path d="M0.83591 23.0747C1.04586 23.0747 1.2558 22.9947 1.41593 22.8344L4.09414 20.1562C4.4145 19.8359 4.4145 19.3165 4.09414 18.9961C3.77383 18.6758 3.25441 18.6758 2.93405 18.9961L0.255895 21.6743C-0.0644648 21.9947 -0.0644648 22.5141 0.255895 22.8344C0.41602 22.9946 0.625965 23.0747 0.83591 23.0747Z" fill="#060606"/>
<path d="M6.5494 21.4506C6.2291 21.1302 5.70968 21.1302 5.38932 21.4506L0.24027 26.5997C-0.0800898 26.9201 -0.0800898 27.4394 0.24027 27.7598C0.400449 27.92 0.61034 28 0.820285 28C1.03023 28 1.24018 27.92 1.4003 27.7597L6.54935 22.6107C6.86976 22.2903 6.86976 21.771 6.5494 21.4506Z" fill="#060606"/>
<path d="M7.84426 23.9049L5.16605 26.5832C4.84569 26.9035 4.84569 27.4229 5.16605 27.7432C5.32623 27.9034 5.53618 27.9835 5.74607 27.9835C5.95596 27.9835 6.16596 27.9035 6.32608 27.7432L9.00429 25.065C9.32465 24.7447 9.32465 24.2253 9.00429 23.9049C8.68399 23.5846 8.16457 23.5846 7.84426 23.9049Z" fill="#060606"/>
</g>
<defs>
<clipPath id="clip0_129_165">
<rect width="28" height="28" fill="white"/>
</clipPath>
</defs>
</svg>
