<svg width="16" height="14" viewBox="0 0 16 14" fill="none" xmlns="http://www.w3.org/2000/svg">
<path d="M7.38592 13.1788C7.34348 13.1788 7.3015 13.17 7.26261 13.153C7.22373 13.1359 7.18879 13.1111 7.15998 13.0799L1.06808 6.49021C1.02746 6.44628 1.00054 6.39146 0.990604 6.33247C0.980665 6.27347 0.98814 6.21286 1.01212 6.15805C1.03609 6.10323 1.07552 6.0566 1.12559 6.02385C1.17566 5.9911 1.23419 5.97366 1.29401 5.97366H4.22632C4.27035 5.97367 4.31386 5.98311 4.35392 6.00137C4.39399 6.01962 4.42967 6.04626 4.45857 6.07947L6.49451 8.42175C6.71454 7.95141 7.14047 7.16827 7.88792 6.214C8.99291 4.80323 11.0482 2.72843 14.5647 0.855443C14.6326 0.81925 14.7117 0.809857 14.7862 0.829118C14.8608 0.848379 14.9254 0.894894 14.9674 0.959479C15.0093 1.02406 15.0255 1.10202 15.0127 1.17796C15 1.2539 14.9592 1.3223 14.8985 1.36966C14.8851 1.38015 13.5293 2.44784 11.9689 4.40351C10.5328 6.2032 8.62386 9.14597 7.6845 12.945C7.668 13.0118 7.62962 13.0711 7.57549 13.1135C7.52135 13.1559 7.45458 13.1789 7.38583 13.1789L7.38592 13.1788Z" fill="#6255ED"/>
</svg>
