<svg width="18" height="15" viewBox="0 0 18 15" fill="none" xmlns="http://www.w3.org/2000/svg">
<path d="M15.875 0.625H2.125C1.62772 0.625 1.15081 0.822544 0.799175 1.17417C0.447544 1.52581 0.25 2.00272 0.25 2.5V12.5C0.25 12.9973 0.447544 13.4742 0.799175 13.8258C1.15081 14.1775 1.62772 14.375 2.125 14.375H15.875C16.3723 14.375 16.8492 14.1775 17.2008 13.8258C17.5525 13.4742 17.75 12.9973 17.75 12.5V2.5C17.75 2.00272 17.5525 1.52581 17.2008 1.17417C16.8492 0.822544 16.3723 0.625 15.875 0.625ZM16.5 12.5C16.5 12.6658 16.4342 12.8247 16.3169 12.9419C16.1997 13.0592 16.0408 13.125 15.875 13.125H2.125C1.95924 13.125 1.80027 13.0592 1.68306 12.9419C1.56585 12.8247 1.5 12.6658 1.5 12.5V2.725L7.75 8.4375C8.09601 8.75549 8.54881 8.93196 9.01875 8.93196C9.48869 8.93196 9.94149 8.75549 10.2875 8.4375L16.5 2.725V12.5Z" fill="#5E56EF"/>
</svg>
