<svg width="20" height="21" viewBox="0 0 20 21" fill="none" xmlns="http://www.w3.org/2000/svg">
<path d="M18.0758 17.3493C17.4607 18.6022 16.394 19.5078 14.7712 19.8664C13.4525 20.1569 12.0771 19.9594 10.8424 19.4102C8.82697 18.5137 6.85237 17.1723 5.09113 15.4088C3.32762 13.6475 1.98626 11.673 1.08975 9.65751C0.540496 8.42282 0.343038 7.04742 0.633559 5.72876C0.992153 4.10596 1.89774 3.03924 3.15059 2.42416C3.76339 2.12229 4.50557 2.33111 4.90956 2.88263C5.53825 3.74055 6.16241 4.70742 6.78656 5.75372C7.11339 6.30071 7.04076 7.00657 6.5959 7.46277C6.20326 7.86676 5.79245 8.2526 5.36349 8.61801C4.84827 9.05832 4.77111 9.82546 5.15923 10.3815C5.81514 11.3166 6.57094 12.2222 7.42433 13.0756C8.27772 13.929 9.1833 14.6848 10.1184 15.3407C10.6745 15.7288 11.4416 15.6516 11.8819 15.1364C12.2473 14.7075 12.6332 14.2967 13.0372 13.904C13.4934 13.4592 14.1992 13.3865 14.7462 13.7134C15.7925 14.3375 16.7594 14.9617 17.6173 15.5904C18.1688 15.9943 18.3776 16.7365 18.0758 17.3493Z" fill="#5E56EF"/>
<path d="M19.4997 10.6486C19.5087 10.8665 19.3272 11.0458 19.1093 11.0458H18.5827C18.3717 11.0458 18.2037 10.8778 18.1946 10.6645C18.0993 8.46746 17.2028 6.41796 15.6435 4.85645C14.082 3.2972 12.0325 2.40069 9.83552 2.30537C9.62217 2.2963 9.45422 2.12833 9.45422 1.91726V1.3907C9.45422 1.17282 9.63353 0.991252 9.85141 1.00033C12.3911 1.09792 14.7629 2.1306 16.565 3.93497C18.3694 5.73707 19.4021 8.10885 19.4997 10.6486Z" fill="#5E56EF"/>
<path d="M16.5128 10.6303C16.5264 10.855 16.3471 11.0457 16.1224 11.0457H15.5959C15.3916 11.0457 15.2214 10.889 15.2078 10.6848C15.1215 9.27759 14.536 7.96802 13.5328 6.9671C12.5319 5.96392 11.2223 5.37835 9.8151 5.2921C9.61083 5.27848 9.45422 5.10826 9.45422 4.904V4.37744C9.45422 4.15275 9.64488 3.97344 9.86957 3.98706C11.6036 4.08692 13.2196 4.80868 14.4565 6.04335C15.6912 7.28031 16.413 8.8963 16.5128 10.6303Z" fill="#5E56EF"/>
<path d="M13.5237 10.6238C13.5464 10.8508 13.3626 11.046 13.1333 11.046H12.6045C12.4048 11.046 12.2414 10.8939 12.2164 10.6942C12.1415 10.0837 11.8646 9.51851 11.4243 9.07593C10.9817 8.63562 10.4166 8.35871 9.80602 8.28383C9.60629 8.25885 9.45422 8.09544 9.45422 7.89571V7.36688C9.45422 7.13764 9.64941 6.9538 9.87637 6.97651C10.8092 7.07183 11.6739 7.48264 12.3457 8.15445C13.0176 8.82626 13.4284 9.69099 13.5237 10.6238Z" fill="#5E56EF"/>
</svg>
