<svg width="58" height="40" viewBox="0 0 58 40" fill="none" xmlns="http://www.w3.org/2000/svg">
<path d="M57.1964 22.611C55.7204 31.9266 45.6054 37.7626 38.2817 39.0518C37.5711 39.176 36.8943 38.7007 36.7701 37.9901C36.7502 37.8762 36.7455 37.7602 36.7561 37.645L37.0173 34.5546C37.0571 33.979 37.4779 33.5014 38.044 33.3895C45.9398 32.0507 50.6381 20.2167 45.804 21.6339C40.7817 23.1034 33.556 21.0214 32.3308 14.1626C31.1056 7.30391 36.3734 0.931078 45.1966 0.931078C54.0198 0.931078 58.7886 12.5678 57.1964 22.611ZM13.5375 0.928467C4.71824 0.928467 -0.548251 7.29737 0.675635 14.1574C1.89952 21.0174 9.12789 23.0982 14.1501 21.6287C18.983 20.2141 14.2807 32.0481 6.39015 33.3843C5.82358 33.4954 5.4024 33.9734 5.36349 34.5494L5.10226 37.6398C5.03593 38.3581 5.56448 38.9942 6.28281 39.0605C6.39794 39.0712 6.51398 39.0665 6.62787 39.0466C13.9503 37.7587 24.0653 31.9214 25.5426 22.6057C27.1335 12.5678 22.3568 0.931077 13.5375 0.931077L13.5375 0.928467Z" fill="#060606"/>
</svg>
