<svg width="44" height="36" viewBox="0 0 44 36" fill="none" xmlns="http://www.w3.org/2000/svg">
<path d="M9.75648 5.43762C10.6124 5.43762 11.3085 4.74152 11.3085 3.88559C11.3085 3.03137 10.6124 2.33613 9.75648 2.33613C8.90227 2.33613 8.20703 3.03137 8.20703 3.88559C8.20703 4.74152 8.90227 5.43762 9.75648 5.43762ZM9.75648 3.71027C9.85445 3.71027 9.93437 3.78934 9.93437 3.88559C9.93437 3.98355 9.85445 4.06348 9.75648 4.06348C9.65938 4.06348 9.58117 3.98355 9.58117 3.88559C9.58117 3.7902 9.66109 3.71027 9.75648 3.71027ZM13.1063 5.43762C13.9623 5.43762 14.6584 4.74152 14.6584 3.88559C14.6584 3.03137 13.9623 2.33613 13.1063 2.33613C12.2504 2.33613 11.5543 3.03137 11.5543 3.88559C11.5543 4.74152 12.2504 5.43762 13.1063 5.43762ZM13.1063 3.71027C13.2043 3.71027 13.2842 3.78934 13.2842 3.88559C13.2842 3.98355 13.2043 4.06348 13.1063 4.06348C13.0101 4.06348 12.9284 3.98184 12.9284 3.88559C12.9284 3.7902 13.0101 3.71027 13.1063 3.71027ZM16.4553 5.43762C17.3112 5.43762 18.0073 4.74152 18.0073 3.88559C18.0073 3.03137 17.3112 2.33613 16.4553 2.33613C15.5994 2.33613 14.9033 3.03137 14.9033 3.88559C14.9041 4.74152 15.6002 5.43762 16.4553 5.43762ZM16.4553 3.71027C16.5516 3.71027 16.6332 3.7902 16.6332 3.88559C16.6332 3.98184 16.5516 4.06348 16.4553 4.06348C16.3573 4.06348 16.2774 3.98355 16.2774 3.88559C16.2774 3.78848 16.3573 3.71027 16.4553 3.71027ZM19.476 3.88559C19.476 3.50574 19.7837 3.19894 20.1627 3.19894H35.108C35.487 3.19894 35.7947 3.5066 35.7947 3.88559C35.7947 4.26457 35.487 4.57223 35.108 4.57223H20.1635C19.7837 4.57223 19.476 4.26543 19.476 3.88559ZM42.6018 9.80496H39.252V3.38629C39.252 1.73457 37.9079 0.389648 36.2553 0.389648H7.74469C6.09383 0.389648 4.75062 1.73371 4.75062 3.38629V9.80496H1.39906C0.627344 9.80496 0 10.4323 0 11.2032V18.3188C0 19.0896 0.627344 19.717 1.3982 19.717H4.74977V29.7459C4.74977 31.3968 6.09297 32.74 7.74383 32.74H15.8383C15.9964 32.9273 16.1623 33.1069 16.3359 33.2788C16.372 33.3243 16.4141 33.3647 16.4613 33.4008C17.9068 34.7698 19.8567 35.6103 21.9991 35.6103C24.1467 35.6103 26.1001 34.7664 27.5473 33.3939C27.5868 33.363 27.6229 33.3278 27.6547 33.2891C27.8326 33.1147 28.0019 32.9316 28.1626 32.7408H36.2553C37.9079 32.7408 39.252 31.3976 39.252 29.7468V19.7178H42.6018C43.3727 19.7178 44 19.0905 44 18.3196V11.204C44 10.4323 43.3727 9.80496 42.6018 9.80496ZM7.74469 1.76379H36.2562C37.1508 1.76379 37.8787 2.49168 37.8787 3.38629V6.00738H6.12477V3.38629C6.12477 2.49168 6.85094 1.76379 7.74469 1.76379ZM1.37414 18.3188V11.2032C1.37414 11.1929 1.38789 11.1791 1.3982 11.1791H12.6285C12.6414 11.1791 12.6526 11.1929 12.6526 11.2032V21.0989L10.7826 18.7863C10.7817 18.7854 10.7809 18.7837 10.7791 18.7829C10.5471 18.5001 10.218 18.3437 9.85359 18.3437H1.3982C1.38875 18.3437 1.37414 18.3291 1.37414 18.3188ZM27.3651 31.5386C26.6217 30.1756 25.172 29.2707 23.5615 29.2707H23.534C24.5584 28.7215 25.257 27.6404 25.257 26.3986C25.257 24.6025 23.7961 23.1416 22 23.1416C20.2039 23.1416 18.743 24.6025 18.743 26.3986C18.743 27.6404 19.4416 28.7215 20.466 29.2707H20.4385C18.8306 29.2707 17.3817 30.1747 16.6366 31.5377C15.8056 30.4231 15.3132 29.0421 15.3132 27.5485C15.3132 23.86 18.3133 20.8591 22 20.8591C25.6884 20.8591 28.6894 23.86 28.6894 27.5485C28.6894 29.0429 28.1961 30.4248 27.3651 31.5386ZM20.1171 26.3995C20.1171 25.3614 20.9619 24.5166 22 24.5166C23.0381 24.5166 23.8829 25.3614 23.8829 26.3995C23.8829 27.4376 23.0381 28.2824 22 28.2824C20.9619 28.2824 20.1171 27.4376 20.1171 26.3995ZM17.6516 32.6222C18.0641 31.4569 19.1804 30.6448 20.4385 30.6448H23.5615C24.8222 30.6448 25.9394 31.4569 26.3493 32.6222C25.1788 33.626 23.6595 34.2353 22 34.2353C20.3405 34.2361 18.8212 33.6268 17.6516 32.6222ZM37.8778 29.7468C37.8778 30.6396 37.1499 31.3667 36.2553 31.3667H29.1002C29.7146 30.2297 30.0635 28.9295 30.0635 27.5493C30.0635 23.1029 26.4464 19.4858 22 19.4858C17.5553 19.4858 13.9391 23.1029 13.9391 27.5493C13.9391 28.9295 14.288 30.2297 14.9016 31.3667H7.74469C6.8518 31.3667 6.12477 30.6396 6.12477 29.7468V19.7178H9.76937L12.1722 22.6896C12.3724 22.9422 12.6723 23.0814 12.9826 23.0814C13.0995 23.0814 13.2189 23.0617 13.3341 23.0204C13.7552 22.8709 14.0267 22.4859 14.0267 22.0399V11.2032C14.0267 10.4323 13.3994 9.80496 12.6285 9.80496H6.12477V7.38152H37.8787V9.80496H31.3723C30.6015 9.80496 29.9741 10.4323 29.9741 11.2032V22.039C29.9741 22.485 30.2457 22.87 30.6702 23.0213C30.7871 23.0625 30.9066 23.0823 31.0234 23.0823C31.332 23.0823 31.6267 22.9448 31.8287 22.693L34.2315 19.7178H37.8787V29.7468H37.8778ZM42.6259 18.3188C42.6259 18.3291 42.6138 18.3428 42.6018 18.3428H34.149C33.7829 18.3428 33.4529 18.4984 33.2209 18.782C33.22 18.7837 33.2191 18.7846 33.2174 18.7863L31.3474 21.1014V11.2032C31.3474 11.1929 31.3595 11.1791 31.3715 11.1791H42.6018C42.6147 11.1791 42.6259 11.1929 42.6259 11.2032V18.3188ZM10.9235 13.9661H3.10406C2.72422 13.9661 2.41742 13.6584 2.41742 13.2794C2.41742 12.9004 2.72508 12.5928 3.10406 12.5928H10.9235C11.3034 12.5928 11.6102 12.9004 11.6102 13.2794C11.6102 13.6584 11.3025 13.9661 10.9235 13.9661ZM11.6102 16.2434C11.6102 16.6232 11.3025 16.93 10.9235 16.93H7.01336C6.63352 16.93 6.32672 16.6224 6.32672 16.2434C6.32672 15.8644 6.63438 15.5568 7.01336 15.5568H10.9235C11.3025 15.5568 11.6102 15.8644 11.6102 16.2434ZM41.5834 13.2786C41.5834 13.6584 41.2758 13.9652 40.8968 13.9652H33.0773C32.6975 13.9652 32.3907 13.6575 32.3907 13.2786C32.3907 12.8996 32.6984 12.5919 33.0773 12.5919H40.8968C41.2758 12.5919 41.5834 12.8996 41.5834 13.2786ZM37.6733 16.2434C37.6733 16.6232 37.3656 16.93 36.9866 16.93H33.0765C32.6966 16.93 32.3898 16.6224 32.3898 16.2434C32.3898 15.8644 32.6975 15.5568 33.0765 15.5568H36.9866C37.3656 15.5568 37.6733 15.8644 37.6733 16.2434Z" fill="url(#paint0_linear_58_289)"/>
<defs>
<linearGradient id="paint0_linear_58_289" x1="0" y1="18" x2="44" y2="18" gradientUnits="userSpaceOnUse">
<stop stop-color="#5956F0"/>
<stop offset="1" stop-color="#FF50B8"/>
</linearGradient>
</defs>
</svg>
