<svg width="44" height="44" viewBox="0 0 44 44" fill="none" xmlns="http://www.w3.org/2000/svg">
<g clip-path="url(#clip0_58_290)">
<path d="M27.9115 15.6553H16.0255C13.8781 15.6553 12.1309 17.4024 12.1309 19.5499V24.4826C12.1309 26.6301 13.8781 28.3772 16.0255 28.3772H27.9115C30.059 28.3772 31.8062 26.6301 31.8062 24.4826V19.5499C31.8062 17.4024 30.059 15.6553 27.9115 15.6553ZM30.0874 24.4827C30.0874 25.6825 29.1113 26.6585 27.9115 26.6585H16.0255C14.8257 26.6585 13.8496 25.6825 13.8496 24.4827V19.55C13.8496 18.3502 14.8257 17.3741 16.0255 17.3741H27.9115C29.1113 17.3741 30.0874 18.3502 30.0874 19.55V24.4827Z" fill="url(#paint0_linear_58_290)"/>
<path d="M27.9115 30.4419H16.0255C13.8781 30.4419 12.1309 32.1891 12.1309 34.3366V39.2692C12.1309 41.4167 13.8781 43.1639 16.0255 43.1639H27.9115C30.059 43.1639 31.8062 41.4167 31.8062 39.2692V34.3366C31.8062 32.1891 30.059 30.4419 27.9115 30.4419ZM30.0874 39.2693C30.0874 40.4692 29.1113 41.4452 27.9115 41.4452H16.0255C14.8257 41.4452 13.8496 40.4692 13.8496 39.2693V34.3367C13.8496 33.1368 14.8257 32.1607 16.0255 32.1607H27.9115C29.1113 32.1607 30.0874 33.1368 30.0874 34.3367V39.2693Z" fill="url(#paint1_linear_58_290)"/>
<path d="M27.9115 0.835938H25.8666C25.392 0.835938 25.0072 1.22077 25.0072 1.69531C25.0072 2.16986 25.392 2.55469 25.8666 2.55469H27.9115C29.1113 2.55469 30.0874 3.53077 30.0874 4.73062V9.66327C30.0874 10.8631 29.1113 11.8392 27.9115 11.8392H16.0255C14.8257 11.8392 13.8496 10.8631 13.8496 9.66327V4.73062C13.8496 3.53077 14.8257 2.55469 16.0255 2.55469H18.2949C18.7694 2.55469 19.1543 2.16986 19.1543 1.69531C19.1543 1.22077 18.7694 0.835938 18.2949 0.835938H16.0255C13.8781 0.835938 12.1309 2.58313 12.1309 4.73062V9.66327C12.1309 11.8108 13.8781 13.558 16.0255 13.558H27.9115C30.059 13.558 31.8062 11.8108 31.8062 9.66327V4.73062C31.8062 2.58313 30.059 0.835938 27.9115 0.835938Z" fill="url(#paint2_linear_58_290)"/>
<path d="M37.2086 21.1567H34.5303C34.0557 21.1567 33.6709 21.5416 33.6709 22.0161C33.6709 22.4907 34.0557 22.8755 34.5303 22.8755H37.2086C40.006 22.8755 42.2817 25.1512 42.2817 27.9486V30.8706C42.2817 33.6679 40.006 35.9436 37.2086 35.9436H36.6049L37.5016 35.0467C37.8372 34.7111 37.8372 34.167 37.5016 33.8313C37.166 33.4958 36.6218 33.4958 36.2862 33.8313L33.9225 36.1952C33.5921 36.5256 33.5921 37.0802 33.9225 37.4106L36.2862 39.7744C36.6174 40.1054 37.1704 40.1054 37.5016 39.7744C37.8372 39.4388 37.8372 38.8947 37.5016 38.559L36.6049 37.6622H37.2085C40.9535 37.6622 44.0003 34.6155 44.0003 30.8705V27.9485C44.0004 24.2037 40.9536 21.1567 37.2086 21.1567Z" fill="url(#paint3_linear_58_290)"/>
<path d="M6.79181 22.983H7.39552L6.49877 23.8799C6.16318 24.2156 6.16318 24.7596 6.49877 25.0953C6.8273 25.4237 7.38487 25.4246 7.71418 25.0953L10.0779 22.7314C10.4073 22.402 10.4073 21.8455 10.0779 21.516L7.71418 19.1521C7.37868 18.8167 6.8347 18.8166 6.49877 19.1521C6.16318 19.4877 6.16318 20.0318 6.49877 20.3675L7.39552 21.2644H6.79181C3.99446 21.2643 1.71875 18.9886 1.71875 16.1913V13.2693C1.71875 10.472 3.99446 8.19629 6.79181 8.19629H9.47014C9.94469 8.19629 10.3295 7.81146 10.3295 7.33691C10.3295 6.86237 9.94469 6.47754 9.47014 6.47754H6.79181C3.04683 6.47754 0 9.52428 0 13.2693V16.1913C0 19.9363 3.04683 22.983 6.79181 22.983Z" fill="url(#paint4_linear_58_290)"/>
<path d="M9.48691 35.9437H4.6384L5.53524 35.0469C5.87083 34.7113 5.87083 34.1671 5.53524 33.8315C5.19957 33.496 4.65559 33.496 4.31983 33.8315L1.95603 36.1953C1.62663 36.5247 1.62663 37.0813 1.95603 37.4108L4.31983 39.7746C4.64846 40.1031 5.20585 40.1039 5.53524 39.7746C5.87083 39.4391 5.87083 38.8949 5.53524 38.5592L4.6384 37.6624H9.48691C9.96145 37.6624 10.3463 37.2776 10.3463 36.803C10.3463 36.3285 9.96145 35.9437 9.48691 35.9437Z" fill="url(#paint5_linear_58_290)"/>
<path d="M33.8318 6.22655C33.5732 6.56359 33.6052 7.05558 33.9056 7.35628L36.2695 9.72016C36.6007 10.0512 37.1537 10.0512 37.4849 9.72016C37.8205 9.38458 37.8205 8.84042 37.4849 8.50475L36.5881 7.6079H41.4365C41.9111 7.6079 42.2959 7.22308 42.2959 6.74853C42.2959 6.27398 41.9111 5.88916 41.4365 5.88916H36.5882L37.4849 4.9924C37.8205 4.65681 37.8205 4.11266 37.4849 3.77698C37.1494 3.44157 36.6054 3.44148 36.2695 3.77698L33.9056 6.14078C33.879 6.16759 33.8548 6.19673 33.8318 6.22655Z" fill="url(#paint6_linear_58_290)"/>
<path d="M16.3906 7.19678C16.3906 7.67132 16.7755 8.05615 17.25 8.05615H26.7879C27.2624 8.05615 27.6472 7.67132 27.6472 7.19678C27.6472 6.72223 27.2624 6.3374 26.7879 6.3374H17.25C16.7754 6.3374 16.3906 6.72223 16.3906 7.19678Z" fill="url(#paint7_linear_58_290)"/>
<path d="M23.0223 21.1567H17.25C16.7755 21.1567 16.3906 21.5416 16.3906 22.0161C16.3906 22.4907 16.7755 22.8755 17.25 22.8755H23.0223C23.4968 22.8755 23.8816 22.4907 23.8816 22.0161C23.8816 21.5416 23.4968 21.1567 23.0223 21.1567Z" fill="url(#paint8_linear_58_290)"/>
<path d="M26.7879 35.9761H17.25C16.7755 35.9761 16.3906 36.3609 16.3906 36.8354C16.3906 37.31 16.7755 37.6948 17.25 37.6948H26.7879C27.2624 37.6948 27.6472 37.31 27.6472 36.8354C27.6472 36.3609 27.2624 35.9761 26.7879 35.9761Z" fill="url(#paint9_linear_58_290)"/>
<path d="M27.5811 21.6813C27.2864 20.9734 26.2379 20.9947 25.9787 21.721C25.8557 22.0655 25.9697 22.4631 26.2594 22.6875C26.5394 22.9043 26.9302 22.9278 27.2332 22.7447C27.5926 22.5276 27.74 22.0686 27.5811 21.6813Z" fill="url(#paint10_linear_58_290)"/>
<path d="M21.3366 2.02393C21.5169 2.45628 22.0252 2.66846 22.4589 2.48885C22.8914 2.30976 23.1019 1.79843 22.923 1.36642C22.7437 0.933726 22.2341 0.722835 21.8014 0.901585C21.3695 1.08008 21.1566 1.59218 21.3366 2.02393Z" fill="url(#paint11_linear_58_290)"/>
</g>
<defs>
<linearGradient id="paint0_linear_58_290" x1="12.1309" y1="22.0162" x2="31.8062" y2="22.0162" gradientUnits="userSpaceOnUse">
<stop stop-color="#5956F0"/>
<stop offset="1" stop-color="#FF50B8"/>
</linearGradient>
<linearGradient id="paint1_linear_58_290" x1="12.1309" y1="36.8029" x2="31.8062" y2="36.8029" gradientUnits="userSpaceOnUse">
<stop stop-color="#5956F0"/>
<stop offset="1" stop-color="#FF50B8"/>
</linearGradient>
<linearGradient id="paint2_linear_58_290" x1="12.1309" y1="7.19695" x2="31.8062" y2="7.19695" gradientUnits="userSpaceOnUse">
<stop stop-color="#5956F0"/>
<stop offset="1" stop-color="#FF50B8"/>
</linearGradient>
<linearGradient id="paint3_linear_58_290" x1="33.6709" y1="30.5897" x2="44.0003" y2="30.5897" gradientUnits="userSpaceOnUse">
<stop stop-color="#5956F0"/>
<stop offset="1" stop-color="#FF50B8"/>
</linearGradient>
<linearGradient id="paint4_linear_58_290" x1="0" y1="15.9097" x2="10.3295" y2="15.9097" gradientUnits="userSpaceOnUse">
<stop stop-color="#5956F0"/>
<stop offset="1" stop-color="#FF50B8"/>
</linearGradient>
<linearGradient id="paint5_linear_58_290" x1="1.70898" y1="36.8006" x2="10.3463" y2="36.8006" gradientUnits="userSpaceOnUse">
<stop stop-color="#5956F0"/>
<stop offset="1" stop-color="#FF50B8"/>
</linearGradient>
<linearGradient id="paint6_linear_58_290" x1="33.6572" y1="6.74691" x2="42.2959" y2="6.74691" gradientUnits="userSpaceOnUse">
<stop stop-color="#5956F0"/>
<stop offset="1" stop-color="#FF50B8"/>
</linearGradient>
<linearGradient id="paint7_linear_58_290" x1="16.3906" y1="7.19678" x2="27.6472" y2="7.19678" gradientUnits="userSpaceOnUse">
<stop stop-color="#5956F0"/>
<stop offset="1" stop-color="#FF50B8"/>
</linearGradient>
<linearGradient id="paint8_linear_58_290" x1="16.3906" y1="22.0161" x2="23.8816" y2="22.0161" gradientUnits="userSpaceOnUse">
<stop stop-color="#5956F0"/>
<stop offset="1" stop-color="#FF50B8"/>
</linearGradient>
<linearGradient id="paint9_linear_58_290" x1="16.3906" y1="36.8354" x2="27.6472" y2="36.8354" gradientUnits="userSpaceOnUse">
<stop stop-color="#5956F0"/>
<stop offset="1" stop-color="#FF50B8"/>
</linearGradient>
<linearGradient id="paint10_linear_58_290" x1="25.9297" y1="22.0153" x2="27.6446" y2="22.0153" gradientUnits="userSpaceOnUse">
<stop stop-color="#5956F0"/>
<stop offset="1" stop-color="#FF50B8"/>
</linearGradient>
<linearGradient id="paint11_linear_58_290" x1="21.2725" y1="1.69537" x2="22.9868" y2="1.69537" gradientUnits="userSpaceOnUse">
<stop stop-color="#5956F0"/>
<stop offset="1" stop-color="#FF50B8"/>
</linearGradient>
<clipPath id="clip0_58_290">
<rect width="44" height="44" fill="white"/>
</clipPath>
</defs>
</svg>
