<svg width="44" height="44" viewBox="0 0 44 44" fill="none" xmlns="http://www.w3.org/2000/svg">
<g clip-path="url(#clip0_58_305)">
<path d="M42.7756 37.3408H40.2688V14.9394C40.2688 13.7011 39.2599 12.693 38.0207 12.693H30.3001L29.2293 11.6222C28.8555 11.2484 28.2883 11.1573 27.8148 11.3962L26.6357 11.9978C25.9559 11.6094 25.2289 11.3069 24.4658 11.0972L24.3996 10.8944C24.3996 10.8935 24.3988 10.8918 24.3988 10.8909L24.4323 10.8325H27.7297C28.7893 10.8325 29.6521 9.97053 29.6521 8.91006V2.1717C29.6521 1.11037 28.7902 0.247559 27.7297 0.247559H16.2691C15.2095 0.247559 14.3466 1.11123 14.3466 2.1717V8.91264C14.3466 9.97225 15.2086 10.8351 16.2691 10.8351H19.5673L19.6 10.8918L19.533 11.0989C18.7724 11.3077 18.042 11.6111 17.363 11.9995L16.1823 11.3962C15.7113 11.1582 15.1441 11.2493 14.7703 11.6231L13.6995 12.6939H5.97977C4.73969 12.6939 3.73164 13.7011 3.73164 14.9403V37.3416H1.22484C0.550234 37.3416 0.00195312 37.8899 0.00195312 38.5645V40.5471C0.00195312 42.3148 1.44055 43.7526 3.20742 43.7526H40.793C42.5608 43.7526 43.9985 42.3148 43.9985 40.5471V38.5645C43.9985 37.8899 43.4502 37.3408 42.7756 37.3408ZM12.9742 17.6568L11.7238 18.0641C11.2168 18.224 10.8756 18.6897 10.8756 19.2234V21.0238C10.8756 21.5575 11.2168 22.0233 11.7178 22.1814L12.9742 22.5913C13.183 23.3519 13.4864 24.0823 13.8748 24.7612L13.2716 25.942C13.0335 26.4129 13.1246 26.9801 13.4984 27.354L14.7703 28.6258C15.1467 29.0022 15.7165 29.0916 16.184 28.8501L17.363 28.2503C18.0428 28.6387 18.7707 28.9412 19.533 29.1509L19.9403 30.4004C20.1002 30.9083 20.5659 31.2486 21.0996 31.2486H22.9C23.4337 31.2486 23.8995 30.9075 24.0576 30.4065L24.4675 29.1501C25.2289 28.9412 25.9585 28.6379 26.6374 28.2494L27.8122 28.8476C28.284 29.0916 28.8538 29.0022 29.2302 28.6258L30.502 27.354C30.8784 26.9776 30.9678 26.4078 30.7263 25.9403L30.1265 24.7604C30.5149 24.0806 30.8174 23.3536 31.0271 22.5904L32.2775 22.1831C32.7845 22.0233 33.1257 21.5575 33.1257 21.0238V19.2243C33.1257 18.6906 32.7845 18.2248 32.2835 18.0667L31.0271 17.6568C30.9893 17.5193 30.9472 17.3835 30.9034 17.2486H35.7752C35.9668 17.2486 36.1284 17.4101 36.1284 17.6018V33.4676C36.1284 33.6592 35.9668 33.8208 35.7752 33.8208H8.22617C8.03453 33.8208 7.87297 33.6592 7.87297 33.4676V17.6018C7.87297 17.4101 8.03453 17.2486 8.22617 17.2486H13.098C13.0541 17.3835 13.012 17.5193 12.9742 17.6568ZM16.2691 9.46092C15.9666 9.46092 15.7208 9.21514 15.7208 8.91264V2.1717C15.7208 1.8735 15.9717 1.62084 16.2691 1.62084H27.7305C28.0279 1.62084 28.2788 1.87264 28.2788 2.1717V8.91264C28.2788 9.21514 28.033 9.46092 27.7305 9.46092H24.4245C23.9338 9.46092 23.493 9.71529 23.2446 10.1424L22.0002 12.2977L20.7541 10.1415C20.5066 9.71529 20.0666 9.46006 19.5751 9.46006H16.2691V9.46092ZM15.6632 12.6733L16.8199 13.2637C17.1946 13.451 17.6166 13.4381 17.9827 13.2276C18.6023 12.8658 19.2691 12.589 19.9609 12.406C20.1096 12.3673 20.2471 12.3029 20.3674 12.2169L20.8229 13.0058C21.0695 13.4312 21.5087 13.6847 21.9994 13.6847C22.4909 13.6847 22.9318 13.4312 23.1793 13.005L23.6348 12.2169C23.7542 12.302 23.8891 12.3665 24.0352 12.4043C24.7322 12.589 25.3991 12.8658 26.0221 13.2293C26.3839 13.4381 26.8067 13.4501 27.1866 13.2602L28.3381 12.6724L29.451 13.7844L28.8658 14.9351C28.6733 15.309 28.6845 15.7344 28.8984 16.1047C29.2602 16.7235 29.537 17.3912 29.72 18.083C29.8248 18.4904 30.1256 18.8092 30.5209 18.9355L31.7524 19.3369V20.9086L30.5278 21.3083C30.1273 21.4346 29.8257 21.7543 29.7217 22.1573C29.537 22.8543 29.2602 23.5212 28.8967 24.1442C28.6853 24.5112 28.6741 24.9365 28.8649 25.3078L29.4519 26.4619L28.3407 27.5731L27.19 26.9879C26.8162 26.7954 26.3908 26.8065 26.0204 27.0205C25.4016 27.3823 24.7339 27.659 24.0421 27.8421C23.633 27.9469 23.3134 28.2486 23.1896 28.643L22.7883 29.8745H21.2165L20.8169 28.6499C20.6905 28.2494 20.3709 27.9478 19.9678 27.8438C19.2709 27.659 18.604 27.3823 17.9809 27.0188C17.6131 26.8074 17.1886 26.7962 16.8173 26.987L15.6632 27.574L14.5503 26.4611L15.1373 25.3112C15.3298 24.9374 15.3186 24.512 15.1055 24.1416C14.7437 23.5229 14.467 22.8551 14.2839 22.1642C14.1791 21.7551 13.8774 21.4354 13.483 21.3117L12.2515 20.9104V19.3386L13.4787 18.9381C13.8783 18.8101 14.1791 18.4912 14.2822 18.0899C14.467 17.3929 14.7437 16.7261 15.1072 16.103C15.3186 15.7352 15.3298 15.3107 15.1381 14.9386L14.5503 13.787L15.6632 12.6733ZM5.10492 14.9394C5.10492 14.4582 5.4968 14.0672 5.97977 14.0672H13.1822C13.2037 14.1497 13.2337 14.2304 13.2733 14.3087L13.8748 15.4877C13.8018 15.6149 13.733 15.7447 13.6669 15.8744H8.22617C7.27398 15.8744 6.49883 16.6496 6.49883 17.6018V33.4676C6.49883 34.4197 7.27398 35.1949 8.22617 35.1949H35.7752C36.7273 35.1949 37.5025 34.4197 37.5025 33.4676V17.6018C37.5025 16.6496 36.7273 15.8744 35.7752 15.8744H30.3345C30.2674 15.7438 30.1987 15.614 30.1265 15.4869L30.7246 14.3112C30.7659 14.2322 30.7968 14.1497 30.8191 14.0663H38.0224C38.5045 14.0663 38.8973 14.4573 38.8973 14.9386V37.3399H30.9549C30.9188 37.3339 30.8819 37.3304 30.8441 37.3304C30.8063 37.3304 30.7693 37.3347 30.7332 37.3399H13.2698C13.2338 37.3339 13.1968 37.3304 13.159 37.3304C13.1212 37.3304 13.0842 37.3347 13.0481 37.3399H5.10492V14.9394ZM13.8456 38.7149H30.1548V38.983C30.1548 39.13 30.032 39.2537 29.8867 39.2537H14.1137C13.9685 39.2537 13.8456 39.13 13.8456 38.983V38.7149ZM42.6244 40.5471C42.6244 41.5569 41.8028 42.3793 40.7922 42.3793H3.20742C2.19766 42.3793 1.37523 41.5577 1.37523 40.5471V38.7149H12.4715V38.983C12.4715 39.8897 13.208 40.627 14.1137 40.627H29.8867C30.7916 40.627 31.529 39.8897 31.529 38.983V38.7149H42.6252V40.5471H42.6244ZM21.9994 25.8896C25.1791 25.8896 27.7658 23.3029 27.7658 20.1232C27.7658 16.9452 25.1791 14.3594 21.9994 14.3594C18.8214 14.3594 16.2355 16.9452 16.2355 20.1232C16.2355 23.3029 18.8205 25.8896 21.9994 25.8896ZM21.9994 15.7335C24.4211 15.7335 26.3916 17.7023 26.3916 20.1232C26.3916 22.5449 24.4211 24.5154 21.9994 24.5154C19.5785 24.5154 17.6097 22.5449 17.6097 20.1232C17.6097 17.7023 19.5785 15.7335 21.9994 15.7335ZM20.6777 7.82123L21.9951 2.90561C22.093 2.53951 22.4703 2.32209 22.8364 2.42006C23.2025 2.51803 23.4199 2.89529 23.322 3.26139L22.0045 8.17701C21.922 8.48381 21.6445 8.68662 21.3411 8.68662C21.2818 8.68662 21.2225 8.67889 21.1623 8.66342C20.7971 8.56459 20.5797 8.18732 20.6777 7.82123ZM20.0417 4.64584L19.1462 5.54131L20.0417 6.43678C20.3098 6.7049 20.3098 7.13975 20.0417 7.40787C19.9077 7.54193 19.7315 7.60896 19.5562 7.60896C19.3809 7.60896 19.2047 7.54193 19.0706 7.40787L17.6896 6.02685C17.4215 5.75873 17.4215 5.32389 17.6896 5.05576L19.0706 3.67475C19.3388 3.40662 19.7736 3.40662 20.0417 3.67475C20.3098 3.94201 20.3098 4.37771 20.0417 4.64584ZM23.9588 6.43678L24.8542 5.54131L23.9588 4.64584C23.6906 4.37771 23.6906 3.94287 23.9588 3.67475C24.2269 3.40662 24.6617 3.40662 24.9298 3.67475L26.3109 5.05576C26.579 5.32389 26.579 5.75873 26.3109 6.02685L24.9307 7.40787C24.7966 7.54193 24.6205 7.60896 24.4452 7.60896C24.2698 7.60896 24.0937 7.54193 23.9596 7.40787C23.6906 7.13975 23.6906 6.7049 23.9588 6.43678Z" fill="url(#paint0_linear_58_305)"/>
</g>
<defs>
<linearGradient id="paint0_linear_58_305" x1="0.00195312" y1="22.0001" x2="43.9985" y2="22.0001" gradientUnits="userSpaceOnUse">
<stop stop-color="#5956F0"/>
<stop offset="1" stop-color="#FF50B8"/>
</linearGradient>
<clipPath id="clip0_58_305">
<rect width="44" height="44" fill="white"/>
</clipPath>
</defs>
</svg>
