<svg width="44" height="44" viewBox="0 0 44 44" fill="none" xmlns="http://www.w3.org/2000/svg">
<g clip-path="url(#clip0_58_307)">
<path d="M21.9999 19.422C24.3692 19.422 26.2967 17.4944 26.2967 15.1252C26.2967 12.7559 24.3692 10.8284 21.9999 10.8284C19.6307 10.8284 17.7031 12.7559 17.7031 15.1252C17.7031 17.4944 19.6307 19.422 21.9999 19.422ZM21.9999 12.5471C23.4215 12.5471 24.578 13.7036 24.578 15.1252C24.578 16.5467 23.4215 17.7033 21.9999 17.7033C20.5784 17.7033 19.4218 16.5467 19.4218 15.1252C19.4218 13.7036 20.5784 12.5471 21.9999 12.5471Z" fill="url(#paint0_linear_58_307)"/>
<path d="M15.7029 38.7373C15.2822 36.9119 13.6952 35.5273 11.772 35.4135C10.6502 33.0949 8.02953 31.6473 5.31885 32.0302C2.48545 32.4301 0 35.2122 0 37.984C0 41.0974 2.71249 43.9995 6.1874 43.9995H18.1325C18.6071 43.9995 18.9919 43.6148 18.9919 43.1402C18.9919 42.6656 18.6071 42.2808 18.1325 42.2808H6.1874C3.80689 42.2808 1.71872 40.273 1.71872 37.984C1.71872 36.077 3.58509 34.0107 5.55904 33.7321C7.3044 33.4854 9.0471 34.3022 9.96181 35.6978C9.40906 35.9124 8.90152 36.2401 8.477 36.6653C8.14168 37.0012 8.14211 37.5453 8.47795 37.8807C8.64569 38.0482 8.86543 38.1319 9.08508 38.1319C9.30525 38.1319 9.52534 38.0478 9.69317 37.8798C10.1266 37.4456 10.6932 37.1537 11.5154 37.1247C12.9369 37.1247 14.0934 38.2813 14.0934 39.7028C14.0934 40.1774 14.4783 40.5622 14.9528 40.5622C17.3751 40.5622 19.4215 38.5945 19.4215 36.2654V33.1717H24.5777V36.2654C24.5777 38.5945 26.6241 40.5622 29.0463 40.5622C29.5209 40.5622 29.9057 40.1774 29.9057 39.7028C29.9057 38.2813 31.0622 37.1247 32.4822 37.1247C33.2571 37.1488 33.8485 37.4216 34.306 37.8798C34.6399 38.2142 35.1839 38.2174 35.5213 37.8807C35.8571 37.5454 35.8575 37.0012 35.5222 36.6653C35.0977 36.2401 34.5902 35.9124 34.0373 35.6978C34.9519 34.3023 36.6942 33.4857 38.4404 33.7321C40.4514 34.0156 42.3177 36.1158 42.2807 38.0533C42.2361 40.3448 40.1897 42.2808 37.8118 42.2808H25.8668C25.3922 42.2808 25.0074 42.6656 25.0074 43.1402C25.0074 43.6148 25.3922 43.9995 25.8668 43.9995H37.8119C41.1035 43.9995 43.9368 41.2918 43.9991 38.0864C44.053 35.2673 41.5677 32.4373 38.6806 32.0302C35.9686 31.6474 33.3487 33.0957 32.2273 35.4135C30.3041 35.5272 28.7171 36.9119 28.2964 38.7373C27.1694 38.4145 26.2965 37.3971 26.2965 36.2653V33.1716H27.1558C27.5866 33.1716 27.9507 32.8527 28.0076 32.4257L28.3666 29.7341H32.1487C33.6603 29.7341 34.8901 28.5044 34.8901 26.9928C34.8901 26.3392 34.6558 25.7058 34.2303 25.2089L29.6781 19.8981L30.1207 16.579C30.9955 10.0136 27.8011 3.33927 22.4419 0.122768C22.1696 -0.040597 21.8296 -0.040597 21.5573 0.122768C16.1969 3.33996 13.004 10.015 13.8785 16.5793L14.3211 19.8982L9.76871 25.2093C9.3435 25.7059 9.10923 26.3392 9.10923 26.9928C9.10923 28.5044 10.3391 29.7341 11.8506 29.7341H15.6327L15.9917 32.4257C16.0486 32.8527 16.4127 33.1716 16.8435 33.1716H17.7028V36.2653C17.7028 37.3971 16.8299 38.4145 15.7029 38.7373ZM32.9252 26.3272C33.084 26.5126 33.1714 26.749 33.1714 26.9929C33.1714 27.5568 32.7125 28.0155 32.1487 28.0155H28.5958L29.3734 22.1837L32.9252 26.3272ZM21.9997 1.8744C23.3087 2.73488 24.4828 3.84999 25.4619 5.15639H18.5375C19.5164 3.84999 20.6906 2.73488 21.9997 1.8744ZM17.4251 6.87512H26.5743C28.1922 9.78337 28.8464 13.1295 28.4172 16.352L26.8616 28.0154H17.1376L15.5822 16.3522C15.1529 13.1295 15.8071 9.78354 17.4251 6.87512ZM11.8506 28.0154C11.2867 28.0154 10.828 27.5567 10.828 26.9928C10.828 26.749 10.9154 26.5126 11.0739 26.3275L14.6259 22.1837L15.4035 28.0154H11.8506ZM17.3668 29.7341H26.6325L26.4035 31.4529H17.5959L17.3668 29.7341Z" fill="url(#paint1_linear_58_307)"/>
<path d="M22 43.9998C22.4746 43.9998 22.8594 43.615 22.8594 43.1404C22.8594 42.6658 22.4746 42.281 22 42.281C21.5254 42.281 21.1406 42.6658 21.1406 43.1404C21.1406 43.615 21.5254 43.9998 22 43.9998Z" fill="url(#paint2_linear_58_307)"/>
</g>
<defs>
<linearGradient id="paint0_linear_58_307" x1="17.7031" y1="15.1252" x2="26.2967" y2="15.1252" gradientUnits="userSpaceOnUse">
<stop stop-color="#5956F0"/>
<stop offset="1" stop-color="#FF50B8"/>
</linearGradient>
<linearGradient id="paint1_linear_58_307" x1="0" y1="21.9999" x2="44" y2="21.9999" gradientUnits="userSpaceOnUse">
<stop stop-color="#5956F0"/>
<stop offset="1" stop-color="#FF50B8"/>
</linearGradient>
<linearGradient id="paint2_linear_58_307" x1="21.1406" y1="43.1404" x2="22.8594" y2="43.1404" gradientUnits="userSpaceOnUse">
<stop stop-color="#5956F0"/>
<stop offset="1" stop-color="#FF50B8"/>
</linearGradient>
<clipPath id="clip0_58_307">
<rect width="44" height="44" fill="white"/>
</clipPath>
</defs>
</svg>
